<svg xmlns="http://www.w3.org/2000/svg" viewBox="0 0 30 30"><defs><style>.a{fill:#fff;}</style></defs><title>sns_tw</title><path class="a" d="M23.75,10.13a7.05,7.05,0,0,1-2.06.56,3.62,3.62,0,0,0,1.58-2A7.14,7.14,0,0,1,21,9.58a3.6,3.6,0,0,0-6.12,3.27A10.23,10.23,0,0,1,7.46,9.1a3.61,3.61,0,0,0,1.12,4.8A3.58,3.58,0,0,1,7,13.45v0A3.61,3.61,0,0,0,9.83,17a3.8,3.8,0,0,1-1.62.06,3.59,3.59,0,0,0,3.35,2.49A7.15,7.15,0,0,1,7.1,21.11a7.92,7.92,0,0,1-.85-.05A10.22,10.22,0,0,0,22,12.45c0-.15,0-.31,0-.46A7.36,7.36,0,0,0,23.75,10.13Z"/></svg>