<svg id="レイヤー_2" data-name="レイヤー 2" xmlns="http://www.w3.org/2000/svg" viewBox="0 0 18.54 18.54"><defs><style>.cls-1{fill:#fff;}</style></defs><title>sns_instagram</title><path class="cls-1" d="M15,7.4c2.48,0,2.77,0,3.75,0a5.31,5.31,0,0,1,1.72.32,2.81,2.81,0,0,1,1.06.7,2.81,2.81,0,0,1,.7,1.06,5.31,5.31,0,0,1,.32,1.72c0,1,.05,1.27.05,3.75s0,2.77-.05,3.75a5.31,5.31,0,0,1-.32,1.72,3.17,3.17,0,0,1-1.76,1.76,5.31,5.31,0,0,1-1.72.32c-1,0-1.27.05-3.75.05s-2.77,0-3.75-.05a5.31,5.31,0,0,1-1.72-.32,2.81,2.81,0,0,1-1.06-.7,2.81,2.81,0,0,1-.7-1.06,5.31,5.31,0,0,1-.32-1.72c0-1,0-1.27,0-3.75s0-2.77,0-3.75a5.31,5.31,0,0,1,.32-1.72,2.81,2.81,0,0,1,.7-1.06,2.81,2.81,0,0,1,1.06-.7,5.31,5.31,0,0,1,1.72-.32c1,0,1.27,0,3.75,0m0-1.67c-2.52,0-2.83,0-3.82,0a6.87,6.87,0,0,0-2.25.44A4.35,4.35,0,0,0,7.29,7.29,4.35,4.35,0,0,0,6.22,8.93a6.87,6.87,0,0,0-.44,2.25c0,1,0,1.3,0,3.82s0,2.83,0,3.82a6.87,6.87,0,0,0,.44,2.25,4.35,4.35,0,0,0,1.07,1.64,4.35,4.35,0,0,0,1.64,1.07,6.87,6.87,0,0,0,2.25.44c1,0,1.3.05,3.82.05s2.83,0,3.82-.05a6.87,6.87,0,0,0,2.25-.44,4.76,4.76,0,0,0,2.71-2.71,6.87,6.87,0,0,0,.44-2.25c0-1,.05-1.3.05-3.82s0-2.83-.05-3.82a6.87,6.87,0,0,0-.44-2.25,4.35,4.35,0,0,0-1.07-1.64,4.35,4.35,0,0,0-1.64-1.07,6.87,6.87,0,0,0-2.25-.44c-1,0-1.3,0-3.82,0Z" transform="translate(-5.73 -5.73)"/><path class="cls-1" d="M15,10.24A4.76,4.76,0,1,0,19.76,15,4.76,4.76,0,0,0,15,10.24Zm0,7.85A3.09,3.09,0,1,1,18.09,15,3.09,3.09,0,0,1,15,18.09Z" transform="translate(-5.73 -5.73)"/><circle class="cls-1" cx="14.22" cy="4.32" r="1.11"/></svg>